# xmcd
#
# Track frame offsets:
#	150
#	18702
#	31252
#	42557
#	59935
#	85612
#	105665
#	125662
#	140317
#	154625
#	176507
#	188097
#
# Disc length: 2804 seconds
#
# Revision: 1
# Processed by: cddbd v1.5.1PL0 Copyright (c) Steve Scherf et al.
# Submitted via: audiograbber 1.83.01
#
DISCID=a20af20c
DTITLE=Steve Miller - The Best Of Steve Miller 1968-1973
DYEAR=1995
DGENRE=
TTITLE0=Living In The U.S.A.
TTITLE1=I Love You
TTITLE2=Don't Let Nobody Turn You Around
TTITLE3=Seasons
TTITLE4=Shu Ba Da Du Ma Ma Ma
TTITLE5=Kow Kow Calqulator
TTITLE6=The Joker
TTITLE7=Going To The Country
TTITLE8=My Dark Hour
TTITLE9=Your Saving Grace
TTITLE10=Celebration Song
TTITLE11=Space Cowboy
EXTD=
EXTT0=
EXTT1=
EXTT2=
EXTT3=
EXTT4=
EXTT5=
EXTT6=
EXTT7=
EXTT8=
EXTT9=
EXTT10=
EXTT11=
PLAYORDER=
